
          <svg data-logo="logo" xmlns="http://www.w3.org/2000/svg" viewBox="0 0 128 43">
            <g id="logogram" transform="translate(0, 1) rotate(0)"><path fill-rule="evenodd" clip-rule="evenodd" d="M6.08797 8.86348V16.6077C6.69497 16.4608 7.29108 16.2667 7.87074 16.0266C9.33826 15.4187 10.6717 14.5278 11.7949 13.4046C12.9181 12.2814 13.809 10.948 14.4169 9.48045C14.7968 8.56328 15.0615 7.60496 15.2066 6.62741C12.1017 6.928 9.02976 7.67335 6.08797 8.86348ZM0.395874 5.12103V16.9473V22.6394V22.8173C0.395874 32.7395 8.43938 40.783 18.3615 40.783C28.2837 40.783 36.3272 32.7395 36.3272 22.8173V22.6394V16.9473V5.12103L33.6964 3.97585C23.9164 -0.28134 12.8067 -0.28134 3.02669 3.97585L0.395874 5.12103ZM6.08901 22.9793C6.16226 28.6428 10.0715 33.3813 15.3376 34.7155C15.335 33.1338 15.0223 31.5678 14.4169 30.1063C13.809 28.6388 12.9181 27.3054 11.7949 26.1822C10.6717 25.059 9.33826 24.168 7.87074 23.5601C7.29141 23.3202 6.69566 23.1262 6.08901 22.9793ZM18.1837 25.0837C17.503 24.0299 16.7111 23.0486 15.8198 22.1572C14.9285 21.2659 13.9471 20.474 12.8933 19.7934C13.9471 19.1127 14.9285 18.3208 15.8198 17.4295C16.7111 16.5382 17.503 15.5568 18.1837 14.503C18.8643 15.5568 19.6562 16.5382 20.5475 17.4295C21.4389 18.3208 22.4202 19.1127 23.474 19.7934C22.4202 20.474 21.4389 21.2659 20.5475 22.1572C19.6562 23.0486 18.8643 24.0299 18.1837 25.0837ZM21.0297 34.8C26.4998 33.5874 30.5971 28.7248 30.6349 22.8986C29.9049 23.0522 29.189 23.2733 28.4966 23.5601C27.0291 24.168 25.6956 25.059 24.5725 26.1822C23.4493 27.3054 22.5583 28.6388 21.9504 30.1063C21.3426 31.5738 21.0297 33.1467 21.0297 34.7351V34.8ZM28.4966 16.0266C29.1891 16.3134 29.9051 16.5346 30.6351 16.6882V8.86348C27.5795 7.6273 24.3834 6.87097 21.1559 6.59451C21.2999 7.58346 21.5663 8.55299 21.9504 9.48045C22.5583 10.948 23.4493 12.2814 24.5725 13.4046C25.6956 14.5278 27.0291 15.4187 28.4966 16.0266Z" fill="#193070"/></g>
            <g id="logotype" transform="translate(38, 14.5)"><path fill="#000000" d="M8.26 0Q10.90 0 12.60 1.07Q14.30 2.14 14.34 4.24L14.34 4.24L14.34 4.48L10.20 4.48L10.20 4.40Q10.20 3.80 9.76 3.40Q9.32 3 8.42 3L8.42 3Q7.54 3 7.07 3.26Q6.60 3.52 6.60 3.90L6.60 3.90Q6.60 4.44 7.24 4.70Q7.88 4.96 9.30 5.24L9.30 5.24Q10.96 5.58 12.03 5.95Q13.10 6.32 13.90 7.16Q14.70 8 14.72 9.44L14.72 9.44Q14.72 11.88 13.07 13.06Q11.42 14.24 8.66 14.24L8.66 14.24Q5.44 14.24 3.65 13.16Q1.86 12.08 1.86 9.34L1.86 9.34L6.04 9.34Q6.04 10.38 6.58 10.73Q7.12 11.08 8.26 11.08L8.26 11.08Q9.10 11.08 9.65 10.90Q10.20 10.72 10.20 10.16L10.20 10.16Q10.20 9.66 9.59 9.41Q8.98 9.16 7.60 8.88L7.60 8.88Q5.92 8.52 4.82 8.13Q3.72 7.74 2.90 6.84Q2.08 5.94 2.08 4.40L2.08 4.40Q2.08 2.14 3.83 1.07Q5.58 0 8.26 0L8.26 0ZM16.12 14L16.12 0.24L28.02 0.24L28.02 3.54L20.54 3.54L20.54 5.44L26.94 5.44L26.94 8.60L20.54 8.60L20.54 10.70L28.16 10.70L28.16 14L16.12 14ZM29.76 14L29.76 0.24L41.66 0.24L41.66 3.54L34.18 3.54L34.18 5.44L40.58 5.44L40.58 8.60L34.18 8.60L34.18 10.70L41.80 10.70L41.80 14L29.76 14ZM47.82 6.12L52.72 0.24L58.20 0.24L53.26 5.90L58.30 14L53.08 14L50.22 8.96L47.82 10.92L47.82 14L43.40 14L43.40 0.24L47.82 0.24L47.82 6.12ZM72.96 14L68.54 14L68.54 8.78L63.68 8.78L63.68 14L59.26 14L59.26 0.24L63.68 0.24L63.68 5.26L68.54 5.26L68.54 0.24L72.96 0.24L72.96 14ZM81.96 0Q85.52 0 87.46 1.82Q89.40 3.64 89.40 7.12L89.40 7.12Q89.40 10.60 87.46 12.42Q85.52 14.24 81.96 14.24L81.96 14.24Q78.40 14.24 76.47 12.43Q74.54 10.62 74.54 7.12L74.54 7.12Q74.54 3.62 76.47 1.81Q78.40 0 81.96 0L81.96 0ZM81.96 3.30Q80.54 3.30 79.80 4.16Q79.06 5.02 79.06 6.48L79.06 6.48L79.06 7.76Q79.06 9.22 79.80 10.08Q80.54 10.94 81.96 10.94L81.96 10.94Q83.38 10.94 84.13 10.08Q84.88 9.22 84.88 7.76L84.88 7.76L84.88 6.48Q84.88 5.02 84.13 4.16Q83.38 3.30 81.96 3.30L81.96 3.30Z"/></g>
            
          </svg>
        